<?xml version="1.0" encoding="UTF-8"?>
<svg id="_Слой_2" data-name="Слой 2" xmlns="http://www.w3.org/2000/svg" viewBox="0 0 452.42 205.51">
  <defs>
    <style>
      .cls-1 {
        fill: #df3030;
      }

      .cls-2, .cls-3 {
        fill: #fff;
      }

      .cls-3 {
        stroke: #fff;
        stroke-miterlimit: 10;
      }

      .cls-4 {
        fill: #333;
      }
    </style>
  </defs>
  <g id="_лого" data-name="лого">
    <polygon class="cls-1" points="275.59 91.68 299.82 63.91 235.52 63.91 235.52 119.46 235.91 119.46 299.82 119.46 275.59 91.68"/>
    <polygon class="cls-4" points="180.36 119.46 180.36 63.91 116.46 63.91 140.68 91.68 140.68 91.68 140.68 91.68 140.68 91.68 140.68 91.68 116.46 119.46 180.36 119.46 180.36 119.46 180.36 119.46"/>
    <g>
      <polygon class="cls-2" points="184.86 9.9 208.14 30.2 231.41 9.9 231.41 173.47 208.14 153.17 184.86 173.47 184.86 9.9"/>
      <path class="cls-1" d="M226.91,19.79v143.78l-12.86-11.21-5.92-5.16-5.92,5.16-12.86,11.22v-44.12s0-55.55,0-55.55v-1.21s0-42.91,0-42.91l12.86,11.22,5.92,5.16,5.92-5.16,12.86-11.22M235.91,0l-27.78,24.23L180.36,0v63.91h0v55.55h0s0,0,0,0v63.91l27.78-24.23,27.77,24.22v-63.9h0v-55.55h0V0h0Z"/>
    </g>
    <path class="cls-4" d="M452.42,147.63v11.3h-17.11v46.58h-15.68v-46.58h-17.11v-11.3h49.9Z"/>
    <path class="cls-4" d="M374.78,205.51v-37.37l-24.19,37.37h-15.68v-57.88h15.68v36.59l24.19-36.59h15.68v57.88h-15.68Z"/>
    <path class="cls-4" d="M277.41,200.94c-4.54,0-8.73-.58-12.55-1.74-3.83-1.16-7.14-2.81-9.94-4.95-2.8-2.14-4.99-4.74-6.58-7.79-1.59-3.05-2.38-6.49-2.38-10.33,0-3.55.64-6.83,1.91-9.82,1.28-2.99,3.21-5.57,5.79-7.74,2.58-2.17,5.85-3.89,9.8-5.16,3.95-1.27,8.6-1.96,13.95-2.07v-4.23h15.3v4.23c10.7.28,18.62,2.62,23.75,7.02,5.13,4.4,7.7,10.27,7.7,17.61,0,3.44-.79,6.67-2.38,9.69-1.59,3.02-3.78,5.66-6.58,7.91-2.8,2.26-6.11,4.05-9.94,5.37-3.83,1.33-8.01,1.99-12.55,1.99v4.57h-15.3v-4.57ZM261.17,176.31c0,2.09.36,4.03,1.07,5.84.71,1.81,1.77,3.39,3.17,4.74,1.4,1.36,3.1,2.46,5.09,3.3,1.99.85,4.29,1.33,6.91,1.44v-30.98c-5.23.17-9.24,1.66-12.04,4.49s-4.2,6.55-4.2,11.17ZM308.95,175.97c0-5.02-1.45-8.77-4.34-11.26-2.89-2.48-6.86-3.84-11.9-4.06v30.98c2.36-.11,4.54-.54,6.53-1.27,1.99-.73,3.7-1.76,5.13-3.09,1.43-1.33,2.55-2.93,3.36-4.83.81-1.89,1.21-4.05,1.21-6.47Z"/>
    <polygon class="cls-3" points="208.14 159.14 235.91 183.36 235.91 172.28 220.6 134.9 195.67 134.9 180.36 172.28 180.36 183.37 208.14 159.14"/>
    <path class="cls-4" d="M220.33,194.3h-24.38l-3.92,11.21h-16.16l23.71-57.88h17.21l23.71,57.88h-16.15l-4.02-11.21ZM199.96,183h16.35l-8.13-24.42-8.22,24.42Z"/>
    <path class="cls-4" d="M167.67,166.49c0,3.07-.73,5.82-2.2,8.26-1.47,2.43-3.49,4.48-6.07,6.13-2.58,1.65-5.62,2.91-9.13,3.78-3.51.87-7.3,1.3-11.38,1.3h-1.63v19.56h-15.68v-57.88h18.35c4.02,0,7.73.38,11.14,1.13,3.41.75,6.34,1.9,8.79,3.43,2.45,1.54,4.36,3.49,5.74,5.87,1.37,2.38,2.06,5.19,2.06,8.43ZM152.57,166.58c0-5.33-4.17-7.99-12.52-7.99h-2.77v16.43h2.58c4.14,0,7.3-.75,9.47-2.26,2.17-1.51,3.25-3.56,3.25-6.17Z"/>
    <path class="cls-4" d="M64.15,158.93v-11.3h39.67v11.3h-39.67ZM79.83,194.21v-12.34h24v-11.3h-39.67v34.94h39.96v-11.3h-24.28Z"/>
    <path class="cls-4" d="M49.9,147.63v11.3h-17.11v46.58h-15.68v-46.58H0v-11.3h49.9Z"/>
  </g>
</svg>